Coordinates
version=1
nRows=54
nColumns=12
inDegrees=yes

Units are S.I. units (second, meters, Newtons, ...)
Angles are in degrees

endheader
time	SC_y	SC_z	SC_x	AC_y	AC_z	AC_x	GH_y	GH_z	GH_yy	EL_x	PS_y
       0.0               -29.1          4.306          63.43          42.76         -14.82         -14.73          140.2          34.76          19.71          110.3          15.56
   0.01078              -29.11           4.31          63.43          42.76         -14.82         -14.72          140.2          34.76          19.73          110.3          15.57
   0.02156              -29.11          4.315          63.43          42.76         -14.82         -14.72          140.2          34.75          19.74          110.3          15.58
   0.03233              -29.11           4.32          63.42          42.77         -14.82         -14.71          140.2          34.74          19.76          110.3          15.58
   0.04311              -29.11          4.325          63.42          42.77         -14.82         -14.71          140.1          34.73          19.78          110.3          15.59
   0.05389              -29.12          4.331          63.42          42.78         -14.82          -14.7          140.1          34.73           19.8          110.3           15.6
   0.06467              -29.12          4.337          63.42          42.78         -14.82          -14.7          140.1          34.72          19.82          110.2           15.6
   0.07544              -29.12          4.344          63.42          42.79         -14.82         -14.69          140.1          34.71          19.84          110.2          15.61
   0.08622              -29.13          4.351          63.42          42.79         -14.82         -14.69          140.1           34.7          19.87          110.2          15.62
     0.097              -29.13          4.358          63.42           42.8         -14.82         -14.68          140.1          34.69          19.89          110.2          15.63
    0.1078              -29.13          4.366          63.42          42.81         -14.83         -14.67          140.1          34.68          19.92          110.1          15.64
    0.1186              -29.14          4.375          63.41          42.81         -14.83         -14.67          140.1          34.66          19.95          110.1          15.65
    0.1293              -29.14          4.384          63.41          42.82         -14.83         -14.66          140.1          34.65          19.98          110.1          15.67
    0.1401              -29.15          4.394          63.41          42.83         -14.83         -14.65          140.1          34.64          20.02          110.1          15.68
    0.1509              -29.15          4.405          63.41          42.84         -14.83         -14.64          140.1          34.62          20.05          110.0          15.69
    0.1617              -29.16          4.417          63.41          42.85         -14.83         -14.63          140.1          34.61           20.1          110.0          15.71
    0.1724              -29.17          4.429           63.4          42.86         -14.83         -14.62          140.1          34.59          20.14          109.9          15.72
    0.1832              -29.17          4.443           63.4          42.87         -14.83         -14.61          140.1          34.57          20.19          109.9          15.74
     0.194              -29.18          4.459           63.4          42.89         -14.84         -14.59          140.1          34.55          20.24          109.9          15.76
    0.2048              -29.19          4.475          63.39           42.9         -14.84         -14.58          140.0          34.52           20.3          109.8          15.78
    0.2156               -29.2          4.494          63.39          42.91         -14.84         -14.56          140.0           34.5          20.36          109.7          15.81
    0.2263              -29.21          4.514          63.39          42.93         -14.84         -14.55          140.0          34.47          20.43          109.7          15.83
    0.2371              -29.22          4.536          63.38          42.95         -14.84         -14.53          140.0          34.44          20.51          109.6          15.86
    0.2479              -29.23          4.561          63.38          42.97         -14.85          -14.5          140.0           34.4          20.59          109.5           15.9
    0.2587              -29.24          4.588          63.37           43.0         -14.85         -14.48          140.0          34.36          20.69          109.5          15.93
    0.2694              -29.26          4.619          63.37          43.02         -14.85         -14.45          139.9          34.32           20.8          109.4          15.97
    0.2802              -29.28          4.653          63.36          43.05         -14.86         -14.43          139.9          34.27          20.91          109.3          16.02
     0.291              -29.29          4.692          63.35          43.08         -14.86         -14.39          139.9          34.22          21.05          109.1          16.07
    0.3018              -29.32          4.735          63.35          43.12         -14.87         -14.35          139.8          34.16           21.2          109.0          16.12
    0.3125              -29.34          4.785          63.34          43.16         -14.87         -14.31          139.8          34.09          21.37          108.8          16.19
    0.3233              -29.37          4.841          63.33          43.21         -14.88         -14.26          139.8          34.01          21.57          108.7          16.26
    0.3341               -29.4          4.906          63.31          43.27         -14.89         -14.21          139.7          33.91          21.79          108.5          16.34
    0.3449              -29.44          4.981           63.3          43.33          -14.9         -14.14          139.7          33.81          22.05          108.2          16.44
    0.3557              -29.48          5.067          63.28           43.4         -14.91         -14.07          139.6          33.68          22.35          108.0          16.56
    0.3664              -29.53          5.169          63.26          43.49         -14.92         -13.98          139.5          33.54           22.7          107.6          16.69
    0.3772              -29.59          5.289          63.24          43.59         -14.93         -13.87          139.4          33.37          23.12          107.3          16.84
     0.388              -29.66          5.431          63.21          43.71         -14.95         -13.75          139.3          33.17          23.61          106.8          17.03
    0.3988              -29.74          5.602          63.18          43.86         -14.97          -13.6          139.2          32.93           24.2          106.3          17.25
    0.4095              -29.85          5.809          63.14          44.03         -14.99         -13.42          139.1          32.64          24.92          105.7          17.52
    0.4203              -29.97          6.061          63.09          44.25         -15.02          -13.2          138.9          32.28          25.79          104.9          17.85
    0.4311              -30.12          6.373          63.03          44.51         -15.06         -12.94          138.6          31.84          26.87          103.9          18.26
    0.4419              -30.32          6.761          62.96          44.84          -15.1          -12.6          138.3          31.29          28.22          102.7          18.76
    0.4527              -30.56           7.25          62.87          45.26         -15.16         -12.17          138.0           30.6          29.92          101.2           19.4
    0.4634              -30.87          7.872          62.75          45.79         -15.23         -11.64          137.5          29.72          32.07          99.23          20.21
    0.4742              -31.26          8.668           62.6          46.46         -15.32         -10.95          136.9          28.59          34.83          96.76          21.25
     0.485              -31.76           9.69           62.4          47.33         -15.44         -10.06          136.2          27.15          38.37          93.58          22.58
    0.4958              -32.41          10.99          62.15          48.44         -15.59          -8.93          135.2           25.3          42.89          89.52          24.28
    0.5065              -33.22          12.64          61.84          49.84         -15.78         -7.509          134.0          22.98          48.58          84.41          26.41
    0.5173               -34.2          14.63          61.46          51.54         -16.01         -5.776          132.5          20.15          55.51          78.19          29.02
    0.5281              -35.35          16.95          61.02          53.51         -16.28         -3.768          130.8          16.88          63.54          70.97          32.04
    0.5389              -36.59          19.46          60.54          55.64         -16.57         -1.594          128.9          13.33          72.24          63.16          35.31
    0.5497              -37.83          21.97          60.06          57.78         -16.86         0.5807          127.1          9.776          80.93          55.35          38.58
    0.5604              -38.97          24.29          59.62          59.75         -17.12          2.589          125.4          6.498          88.97          48.14          41.59
    0.5712              -39.96          26.29          59.24          61.45         -17.35          4.321          123.9           3.67           95.9          41.92           44.2
